# xmcd
#
# Track frame offsets:
# 150
# 26590
# 51994
# 76797
# 102478
# 124794
# 148651
# 179912
# 205147
# 227652
#
# Disc length: 3384 seconds
#
# Revision: 1
# Processed by: cddbd v1.5.1PL2 Copyright (c) Steve Scherf et al.
# Submitted via: CedeCatalogueitor 2.6.0.6 http://personales.ya.com/cdcatalogueitor
#
DISCID=8c0d360a
DTITLE=Freedom Call - Stairway To Fairyland 
DYEAR=1999
DGENRE=Power Metal
TTITLE0=Over The Rainbow
TTITLE1=Tears Falling
TTITLE2=Fairyland
TTITLE3=Shine On
TTITLE4=We Are One
TTITLE5=Hymn To The Brave
TTITLE6=Tears Of Taragon
TTITLE7=Graceland
TTITLE8=Holy Knight
TTITLE9=Another Day
EXTD=
EXTT0=
EXTT1=
EXTT2=
EXTT3=
EXTT4=
EXTT5=
EXTT6=
EXTT7=
EXTT8=
EXTT9=
PLAYORDER=
